<svg width="736" height="320" viewBox="0 0 736 320" fill="none" xmlns="http://www.w3.org/2000/svg">
	<path d="M39 219C64 194 92 175 124 162C161 148 204 141 258 140H346C372 119 396 104 422 95C449 86 480 84 517 88C559 92 605 107 654 130L633 136C602 134 574 134 550 136C518 139 489 149 465 164C441 179 419 201 391 225L365 246C329 259 287 267 240 271C195 275 142 275 81 272H39V219Z" fill="#083E9A"/>
	<path d="M170 238C174 213 186 193 206 177C226 160 251 151 281 149C307 148 329 155 346 171C362 186 372 207 376 234C367 213 354 197 337 186C320 175 300 170 276 171C251 173 229 183 208 198C191 210 178 224 170 238Z" fill="#083E9A"/>
	<path d="M497 238C504 214 517 194 536 179C555 164 579 156 606 156C631 157 652 166 669 181C686 196 697 216 702 242C692 220 679 204 662 194C645 184 625 179 603 180C580 181 558 190 539 204C522 217 508 228 497 238Z" fill="#083E9A"/>
	<path d="M253 236C320 236 380 231 432 220C478 210 522 196 564 175C530 199 489 217 442 230C388 246 325 254 253 254V236Z" fill="#083E9A"/>
	<path d="M235 252C304 255 372 252 438 243C487 236 530 227 568 215C533 236 489 251 437 262C376 275 309 281 235 278V252Z" fill="#083E9A"/>
	<path d="M603 165L663 168L695 169L683 189C673 204 661 214 647 219C633 224 617 223 599 215L566 202L613 199L655 193L676 183L603 165Z" fill="#D50000"/>
	<path d="M256 147H343L367 145C398 143 431 137 465 127L505 114L472 111C436 108 395 112 349 124C307 135 276 143 256 147Z" fill="#083E9A"/>
</svg>
