<svg width="64" height="64" viewBox="0 0 64 64" fill="none" xmlns="http://www.w3.org/2000/svg">
	<path d="M4 41C8 36 12 33 18 30C24 27 30 25 39 25H48C52 22 56 20 59 19C62 18 66 18 71 19C76 20 81 22 88 26L85 27C81 27 77 27 73 28C69 28 65 30 61 33C58 35 55 38 50 43L46 46C40 48 34 49 27 50C20 51 13 51 4 50V41Z" fill="#083E9A" transform="scale(0.72) translate(1 2)"/>
	<path d="M15 50C16 47 18 44 21 41C24 39 28 37 32 37C36 37 39 39 42 41C39 40 36 40 33 41C30 42 27 44 24 47C21 48 18 49 15 50Z" fill="#083E9A"/>
	<path d="M44 50C45 47 47 45 50 43C53 42 56 42 59 43C57 43 55 44 53 45C51 47 48 48 44 50Z" fill="#083E9A"/>
	<path d="M53 41L61 42L59 45C58 46 56 47 54 47C52 47 51 46 49 45L53 44L56 43L53 41Z" fill="#D50000"/>
</svg>
